<svg width="19" height="19" viewBox="0 0 19 19" fill="none" xmlns="http://www.w3.org/2000/svg">
<g id="fi_7268609" clip-path="url(#clip0_1_822)">
<g id="Group">
<g id="Group_2">
<g id="Group_3">
<g id="Group_4">
<path id="Vector" d="M14.5006 18.2456H4.50066C3.43229 18.2456 2.42781 17.8295 1.67226 17.074C0.91675 16.3185 0.500671 15.314 0.500671 14.2456V13.2455C0.500671 12.6932 0.948363 12.2455 1.50068 12.2455C2.05299 12.2455 2.50068 12.6932 2.50068 13.2455V14.2456C2.50068 14.7798 2.70874 15.282 3.08643 15.6597C3.46422 16.0375 3.96644 16.2456 4.50066 16.2456H14.5006C15.0348 16.2456 15.5371 16.0375 15.9148 15.6597C16.2926 15.282 16.5007 14.7797 16.5007 14.2456V13.2455C16.5007 12.6932 16.9484 12.2455 17.5006 12.2455C18.0529 12.2455 18.5007 12.6932 18.5007 13.2455V14.2456C18.5007 15.3139 18.0846 16.3184 17.329 17.074C16.5735 17.8295 15.569 18.2456 14.5006 18.2456ZM9.50065 14.2455C9.36232 14.2455 9.23063 14.2175 9.11081 14.1667C8.99903 14.1195 8.89399 14.0509 8.80208 13.9611C8.80204 13.9611 8.80204 13.9611 8.80201 13.9611C8.80134 13.9604 8.80068 13.9598 8.80002 13.9591C8.79984 13.959 8.79963 13.9587 8.79946 13.9585C8.7989 13.9581 8.79841 13.9575 8.79789 13.957C8.79754 13.9567 8.79722 13.9564 8.79687 13.956C8.79652 13.9556 8.79607 13.9552 8.79576 13.9549C8.79506 13.9542 8.79429 13.9534 8.79359 13.9527L4.79357 9.95269C4.40306 9.56218 4.40306 8.929 4.79357 8.53845C5.18407 8.14795 5.81729 8.14791 6.2078 8.53845L8.50068 10.8313V1.24561C8.50065 0.693297 8.94834 0.245605 9.50065 0.245605C10.053 0.245605 10.5007 0.693297 10.5007 1.24561V10.8313L12.7935 8.53845C13.184 8.14795 13.8173 8.14795 14.2078 8.53845C14.5983 8.92896 14.5983 9.56218 14.2078 9.95269L10.2078 13.9527C10.2071 13.9534 10.2063 13.9541 10.2056 13.9548C10.2052 13.9552 10.2048 13.9556 10.2045 13.9559C10.2041 13.9563 10.2038 13.9566 10.2035 13.9569C10.203 13.9575 10.2024 13.958 10.2019 13.9585C10.2017 13.9586 10.2015 13.9589 10.2013 13.959C10.2007 13.9597 10.2 13.9604 10.1994 13.961C10.1993 13.961 10.1993 13.961 10.1993 13.9611C10.1883 13.9718 10.1772 13.9822 10.1658 13.9923C10.082 14.067 9.98876 14.1252 9.89015 14.1668C9.8898 14.1669 9.88952 14.1671 9.88917 14.1672C9.88879 14.1674 9.88847 14.1676 9.88809 14.1677C9.7689 14.2179 9.63804 14.2455 9.50065 14.2455Z" fill="white"/>
</g>
</g>
</g>
</g>
</g>
<defs>
<clipPath id="clip0_1_822">
<rect width="18" height="18" fill="white" transform="translate(0.500671 0.245605)"/>
</clipPath>
</defs>
</svg>
