<svg width="186" height="20" viewBox="0 0 186 20" fill="none" xmlns="http://www.w3.org/2000/svg">
<g opacity="0.6">
<path d="M0.238671 16.8225V13.6585H1.20467C1.69 13.0518 2.04934 12.2305 2.28267 11.1945C2.516 10.1492 2.63267 8.85184 2.63267 7.30251V4.75451H9.18467V13.6585H10.5847V16.8225H9.53467V14.6245H1.27467V16.8225H0.238671ZM2.40867 13.6585H8.02267V5.72051H3.71067V7.38651C3.71067 8.88918 3.60334 10.1445 3.38867 11.1525C3.18334 12.1605 2.85667 12.9958 2.40867 13.6585ZM11.6392 14.7785L11.2192 13.8825C11.6392 13.7052 11.9705 13.4578 12.2132 13.1405C12.4558 12.8138 12.6238 12.3658 12.7172 11.7965C12.8198 11.2272 12.8712 10.4805 12.8712 9.55651V7.82051H17.8132V14.6245H16.6792V8.73051H13.9352V9.59851C13.9352 10.6625 13.8558 11.5398 13.6972 12.2305C13.5478 12.9212 13.3052 13.4672 12.9692 13.8685C12.6332 14.2698 12.1898 14.5732 11.6392 14.7785ZM19.4962 14.6245L20.5462 12.8045C20.8262 12.3098 21.1856 11.9878 21.6242 11.8385C21.0456 11.7545 20.5976 11.5445 20.2802 11.2085C19.9629 10.8632 19.8042 10.4152 19.8042 9.86451C19.8042 9.23918 20.0096 8.74451 20.4202 8.38051C20.8402 8.00718 21.4656 7.82051 22.2962 7.82051H25.3622V14.6245H24.2842V12.0345H23.2902C22.9169 12.0345 22.5996 12.1278 22.3382 12.3145C22.0862 12.5012 21.8809 12.7298 21.7222 13.0005L20.7982 14.6245H19.4962ZM22.5062 11.2085H24.2842V8.61851H22.5062C21.9556 8.61851 21.5496 8.73518 21.2882 8.96851C21.0269 9.19251 20.8962 9.50518 20.8962 9.90651C20.8962 10.3172 21.0269 10.6392 21.2882 10.8725C21.5496 11.0965 21.9556 11.2085 22.5062 11.2085Z" fill="#343A40"/>
<path d="M53.3787 14.8667L49.9207 4.9967H51.1247L53.9107 13.1867L56.7667 4.9967H57.6907L60.5187 13.2567L63.3607 4.9967H64.5087L61.0507 14.8667H60.0287L57.2147 6.7467L54.3727 14.8667H53.3787ZM65.8329 6.3687V5.0947H67.2329V6.3687H65.8329ZM65.9729 14.8667V8.0627H67.1069V14.8667H65.9729ZM69.2268 14.8667V8.0627H70.3328V9.2247C70.5568 8.79537 70.8741 8.47337 71.2848 8.2587C71.6954 8.04403 72.1574 7.9367 72.6708 7.9367C74.2854 7.9367 75.0928 8.8327 75.0928 10.6247V14.8667H73.9588V10.6947C73.9588 10.06 73.8328 9.59803 73.5808 9.3087C73.3381 9.01003 72.9461 8.8607 72.4048 8.8607C71.7794 8.8607 71.2801 9.0567 70.9068 9.4487C70.5428 9.83137 70.3608 10.3447 70.3608 10.9887V14.8667H69.2268ZM79.7738 14.9927C79.1671 14.9927 78.6351 14.848 78.1778 14.5587C77.7298 14.2694 77.3798 13.8634 77.1278 13.3407C76.8851 12.8087 76.7638 12.1834 76.7638 11.4647C76.7638 10.7367 76.8851 10.1114 77.1278 9.5887C77.3798 9.0567 77.7298 8.6507 78.1778 8.3707C78.6351 8.08137 79.1671 7.9367 79.7738 7.9367C80.3058 7.9367 80.7725 8.05337 81.1738 8.2867C81.5845 8.52003 81.8878 8.84203 82.0838 9.2527V4.9967H83.2178V14.8667H82.1118V13.6207C81.9158 14.05 81.6125 14.386 81.2018 14.6287C80.7911 14.8714 80.3151 14.9927 79.7738 14.9927ZM80.0118 14.0827C80.6465 14.0827 81.1551 13.8587 81.5378 13.4107C81.9205 12.9534 82.1118 12.3047 82.1118 11.4647C82.1118 10.6154 81.9205 9.9667 81.5378 9.5187C81.1551 9.0707 80.6465 8.8467 80.0118 8.8467C79.3678 8.8467 78.8545 9.0707 78.4718 9.5187C78.0985 9.9667 77.9118 10.6154 77.9118 11.4647C77.9118 12.3047 78.0985 12.9534 78.4718 13.4107C78.8545 13.8587 79.3678 14.0827 80.0118 14.0827ZM88.1739 14.9927C87.5113 14.9927 86.9373 14.848 86.4519 14.5587C85.9666 14.2694 85.5886 13.8634 85.3179 13.3407C85.0566 12.8087 84.9259 12.1834 84.9259 11.4647C84.9259 10.746 85.0566 10.1254 85.3179 9.6027C85.5886 9.0707 85.9666 8.66003 86.4519 8.3707C86.9373 8.08137 87.5113 7.9367 88.1739 7.9367C88.8273 7.9367 89.3966 8.08137 89.8819 8.3707C90.3766 8.66003 90.7546 9.0707 91.0159 9.6027C91.2866 10.1254 91.4219 10.746 91.4219 11.4647C91.4219 12.1834 91.2866 12.8087 91.0159 13.3407C90.7546 13.8634 90.3766 14.2694 89.8819 14.5587C89.3966 14.848 88.8273 14.9927 88.1739 14.9927ZM88.1739 14.0827C88.8086 14.0827 89.3173 13.8587 89.6999 13.4107C90.0826 12.9534 90.2739 12.3047 90.2739 11.4647C90.2739 10.6154 90.0826 9.9667 89.6999 9.5187C89.3173 9.0707 88.8086 8.8467 88.1739 8.8467C87.5299 8.8467 87.0166 9.0707 86.6339 9.5187C86.2606 9.9667 86.0739 10.6154 86.0739 11.4647C86.0739 12.3047 86.2606 12.9534 86.6339 13.4107C87.0166 13.8587 87.5299 14.0827 88.1739 14.0827ZM94.8355 14.8667L92.3015 8.0627H93.4915L95.4095 13.5367L97.3975 8.0627H98.3635L100.324 13.5507L102.27 8.0627H103.404L100.856 14.8667H99.7775L97.8595 9.5887L95.9275 14.8667H94.8355ZM106.96 14.9927C106.428 14.9927 105.924 14.918 105.448 14.7687C104.972 14.6194 104.58 14.4094 104.272 14.1387L104.636 13.3407C104.972 13.6114 105.341 13.812 105.742 13.9427C106.153 14.064 106.568 14.1247 106.988 14.1247C107.52 14.1247 107.922 14.0267 108.192 13.8307C108.463 13.6347 108.598 13.3687 108.598 13.0327C108.598 12.7714 108.51 12.566 108.332 12.4167C108.155 12.258 107.875 12.1367 107.492 12.0527L106.218 11.7727C105.061 11.5207 104.482 10.9234 104.482 9.9807C104.482 9.3647 104.725 8.87003 105.21 8.4967C105.705 8.12337 106.349 7.9367 107.142 7.9367C107.609 7.9367 108.052 8.01137 108.472 8.1607C108.902 8.3007 109.256 8.5107 109.536 8.7907L109.158 9.5887C108.888 9.3367 108.57 9.14537 108.206 9.0147C107.852 8.8747 107.497 8.8047 107.142 8.8047C106.62 8.8047 106.223 8.90737 105.952 9.1127C105.682 9.31803 105.546 9.5887 105.546 9.9247C105.546 10.4474 105.892 10.7834 106.582 10.9327L107.856 11.1987C108.454 11.3294 108.906 11.5394 109.214 11.8287C109.522 12.1087 109.676 12.4914 109.676 12.9767C109.676 13.602 109.429 14.0967 108.934 14.4607C108.44 14.8154 107.782 14.9927 106.96 14.9927ZM115.504 14.8667L120.096 5.9907H114.874V4.9967H121.398V5.8647L116.778 14.8667H115.504ZM123.801 16.4627L123.269 16.0567C123.474 15.842 123.619 15.6367 123.703 15.4407C123.796 15.254 123.857 15.0627 123.885 14.8667H123.213V13.4387H124.641V14.4467C124.641 14.8294 124.58 15.184 124.459 15.5107C124.337 15.8374 124.118 16.1547 123.801 16.4627ZM133.312 14.9927C132.201 14.9927 131.338 14.7547 130.722 14.2787C130.106 13.7934 129.798 13.1167 129.798 12.2487C129.798 11.642 129.961 11.124 130.288 10.6947C130.624 10.2654 131.067 9.97137 131.618 9.8127C131.123 9.62603 130.736 9.32737 130.456 8.9167C130.176 8.50603 130.036 8.0347 130.036 7.5027C130.036 6.67203 130.33 6.02803 130.918 5.5707C131.515 5.10403 132.313 4.8707 133.312 4.8707C134.311 4.8707 135.109 5.10403 135.706 5.5707C136.303 6.02803 136.602 6.67203 136.602 7.5027C136.602 8.0347 136.457 8.5107 136.168 8.9307C135.888 9.34137 135.505 9.63537 135.02 9.8127C135.571 9.97137 136.009 10.2654 136.336 10.6947C136.663 11.124 136.826 11.642 136.826 12.2487C136.826 13.1167 136.518 13.7934 135.902 14.2787C135.286 14.7547 134.423 14.9927 133.312 14.9927ZM133.312 9.3927C133.993 9.3927 134.525 9.23403 134.908 8.9167C135.3 8.59003 135.496 8.15137 135.496 7.6007C135.496 7.0407 135.3 6.6067 134.908 6.2987C134.525 5.98137 133.993 5.8227 133.312 5.8227C132.631 5.8227 132.099 5.98137 131.716 6.2987C131.333 6.6067 131.142 7.0407 131.142 7.6007C131.142 8.15137 131.333 8.59003 131.716 8.9167C132.099 9.23403 132.631 9.3927 133.312 9.3927ZM133.312 14.0407C134.917 14.0407 135.72 13.42 135.72 12.1787C135.72 10.956 134.917 10.3447 133.312 10.3447C131.707 10.3447 130.904 10.956 130.904 12.1787C130.904 13.42 131.707 14.0407 133.312 14.0407ZM138.977 16.4627L138.445 16.0567C138.65 15.842 138.795 15.6367 138.879 15.4407C138.972 15.254 139.033 15.0627 139.061 14.8667H138.389V13.4387H139.817V14.4467C139.817 14.8294 139.756 15.184 139.635 15.5107C139.513 15.8374 139.294 16.1547 138.977 16.4627ZM146.024 14.8667V13.8867H148.278V6.3827L146.5 7.5027L146.01 6.6487L148.6 4.9967H149.426V13.8867H151.54V14.8667H146.024ZM156.882 14.9927C155.753 14.9927 154.894 14.5587 154.306 13.6907C153.718 12.8227 153.424 11.5674 153.424 9.9247C153.424 8.2727 153.718 7.01737 154.306 6.1587C154.894 5.30003 155.753 4.8707 156.882 4.8707C158.021 4.8707 158.88 5.30003 159.458 6.1587C160.046 7.00803 160.34 8.2587 160.34 9.9107C160.34 11.5627 160.042 12.8227 159.444 13.6907C158.856 14.5587 158.002 14.9927 156.882 14.9927ZM156.882 13.9987C157.666 13.9987 158.245 13.6674 158.618 13.0047C159.001 12.342 159.192 11.3107 159.192 9.9107C159.192 8.5107 159.006 7.4887 158.632 6.8447C158.259 6.19137 157.676 5.8647 156.882 5.8647C156.098 5.8647 155.515 6.19137 155.132 6.8447C154.759 7.49803 154.572 8.52003 154.572 9.9107C154.572 11.3107 154.759 12.342 155.132 13.0047C155.515 13.6674 156.098 13.9987 156.882 13.9987ZM162.547 16.4627L162.015 16.0567C162.22 15.842 162.365 15.6367 162.449 15.4407C162.542 15.254 162.603 15.0627 162.631 14.8667H161.959V13.4387H163.387V14.4467C163.387 14.8294 163.326 15.184 163.205 15.5107C163.084 15.8374 162.864 16.1547 162.547 16.4627ZM169.594 14.8667V13.8867H171.848V6.3827L170.07 7.5027L169.58 6.6487L172.17 4.9967H172.996V13.8867H175.11V14.8667H169.594ZM177.989 14.8667V13.8867H180.243V6.3827L178.465 7.5027L177.975 6.6487L180.565 4.9967H181.391V13.8867H183.505V14.8667H177.989Z" fill="#343A40"/>
<g clip-path="url(#clip0_0_208)">
<path d="M34.0007 5.49951V9.24951H39.2507V4.84326L34.0007 5.49951Z" fill="#343A40"/>
<path d="M40.0007 4.74951V9.24951H46.0007V3.99951L40.0007 4.74951Z" fill="#343A40"/>
<path d="M40.0007 9.99951V14.4995L46.0007 15.2495V9.99951H40.0007Z" fill="#343A40"/>
<path d="M34.0007 9.99951V13.7495L39.2507 14.4058V9.99951H34.0007Z" fill="#343A40"/>
</g>
</g>
<defs>
<clipPath id="clip0_0_208">
<rect width="12" height="12" fill="white" transform="translate(34.0007 3.62451)"/>
</clipPath>
</defs>
</svg>
